<svg xmlns="http://www.w3.org/2000/svg" xmlns:xlink="http://www.w3.org/1999/xlink" viewBox="0 0 260.55 172.05"><defs><clipPath id="clip-path"><rect width="260.27" height="172.05" rx="13.6" style="fill:none"/></clipPath></defs><g id="Camada_2" data-name="Camada 2"><g id="Camada_2-2" data-name="Camada 2"><g style="clip-path:url(#clip-path)"><path d="M0,0H260.27l.28,81.11C229.13,69.16,129.16,40.56,0,76.2Z" style="fill:#2c328c;fill-rule:evenodd"/><path d="M0,172.05H260.27V107.16C213.33,91.45,129.89,67.91,0,101.26Z" style="fill:#fff200;fill-rule:evenodd"/><path d="M260.27,107.16C213.33,91.45,129.89,67.91,0,101.26V76.2c129.16-35.64,229.13-7,260.55,4.91Z" style="fill:#ed1c24;fill-rule:evenodd"/><path d="M82.91,60.92c6.44-17.8,21.18-33.17,46.78-33S172.39,42.72,177,61.86C144,58.43,122,57.83,82.91,60.92Z" style="fill:#fff200;fill-rule:evenodd"/><path d="M58.15,139.18l17.43-26H82l18.58,26H93.77l-5.29-7.86h-19l-5,7.86Zm13.09-10.66H86.63l-4.74-7.19a55,55,0,0,1-3.22-5.39,23.06,23.06,0,0,1-2.45,5l-5,7.62Zm59.86,10.66v-2.76q-3.85,3.2-10.44,3.19a22.39,22.39,0,0,1-5.43-.64,10.06,10.06,0,0,1-3.74-1.6,5.08,5.08,0,0,1-1.72-2.37,9.66,9.66,0,0,1-.34-3V120.37H115V130.8a10.75,10.75,0,0,0,.34,3.37,3.9,3.9,0,0,0,2.22,2,11.14,11.14,0,0,0,4.22.71,14.74,14.74,0,0,0,4.7-.73,6.08,6.08,0,0,0,3.11-2,6.27,6.27,0,0,0,.92-3.68V120.37h5.56v18.81Zm18.5,0V120.37h5v2.85a10.71,10.71,0,0,1,3.56-2.64,9.73,9.73,0,0,1,3.57-.64,17.21,17.21,0,0,1,5.72,1l-1.92,3a12.62,12.62,0,0,0-4.08-.69,8.17,8.17,0,0,0-3.28.63,4.08,4.08,0,0,0-2.07,1.74,7.5,7.5,0,0,0-.93,3.72v9.85Zm47.47-2.32a27.35,27.35,0,0,1-6,2.13,29.34,29.34,0,0,1-6.15.62c-3.62,0-6.38-.51-8.33-1.52s-2.9-2.3-2.9-3.87a3.53,3.53,0,0,1,1.1-2.52,7.77,7.77,0,0,1,2.87-1.84,19.86,19.86,0,0,1,4-1c1.09-.16,2.74-.33,4.95-.48a84.84,84.84,0,0,0,9.94-1.1c0-.43,0-.71,0-.83a2.79,2.79,0,0,0-1.58-2.74,14.38,14.38,0,0,0-6.34-1.08,16.15,16.15,0,0,0-5.81.78,5.22,5.22,0,0,0-2.77,2.79l-5.44-.42a6.8,6.8,0,0,1,2.44-3.23,12.72,12.72,0,0,1,4.92-1.9,37.41,37.41,0,0,1,7.46-.67,34.11,34.11,0,0,1,6.84.57,11.21,11.21,0,0,1,3.88,1.43,4.62,4.62,0,0,1,1.73,2.17,10.71,10.71,0,0,1,.27,2.94v4.25a25.61,25.61,0,0,0,.36,5.62,5.49,5.49,0,0,0,1.41,2.26h-5.82a4.62,4.62,0,0,1-1.11-2.32Zm-.47-7.12a67.85,67.85,0,0,1-9.1,1.21,34.43,34.43,0,0,0-4.86.63,5,5,0,0,0-2.19,1,2,2,0,0,0-.78,1.51c0,.86.57,1.56,1.69,2.13a11.34,11.34,0,0,0,4.93.85,18.66,18.66,0,0,0,5.73-.81,7.74,7.74,0,0,0,3.68-2.2,4.84,4.84,0,0,0,.9-3.19Z" style="fill:#2c328c;stroke:#2c328c;stroke-miterlimit:22.925600000000003;stroke-width:0.216px"/></g></g></g></svg>